<mxfile host="app.diagrams.net" agent="Mozilla/5.0 (Windows NT 10.0; Win64; x64) AppleWebKit/537.36 (KHTML, like Gecko) Chrome/100.0.4896.75 Safari/537.36 Edg/100.0.1185.36" version="26.0.10">
  <diagram id="6a731a19-8d31-9384-78a2-239565b7b9f0" name="Page-1">
    <mxGraphModel dx="833" dy="389" grid="1" gridSize="10" guides="1" tooltips="1" connect="1" arrows="1" fold="1" page="1" pageScale="1" pageWidth="827" pageHeight="1169" background="none" math="0" shadow="0">
      <root>
        <mxCell id="0" />
        <mxCell id="1" parent="0" />
        <mxCell id="fRu_CCLorEqA925XQcMt-2257" value="" style="shape=mxgraph.cisco.switches.atm_switch;sketch=0;html=1;pointerEvents=1;dashed=0;fillColor=#036897;strokeColor=#ffffff;strokeWidth=2;verticalLabelPosition=bottom;verticalAlign=top;align=center;outlineConnect=0;" vertex="1" parent="1">
          <mxGeometry x="414" y="710" width="54" height="56" as="geometry" />
        </mxCell>
        <mxCell id="fRu_CCLorEqA925XQcMt-2258" value="" style="shape=mxgraph.cisco.switches.atm_switch;sketch=0;html=1;pointerEvents=1;dashed=0;fillColor=#036897;strokeColor=#ffffff;strokeWidth=2;verticalLabelPosition=bottom;verticalAlign=top;align=center;outlineConnect=0;" vertex="1" parent="1">
          <mxGeometry x="290" y="710" width="54" height="56" as="geometry" />
        </mxCell>
        <mxCell id="fRu_CCLorEqA925XQcMt-2259" value="" style="shape=mxgraph.cisco.routers.router;sketch=0;html=1;pointerEvents=1;dashed=0;fillColor=#036897;strokeColor=#ffffff;strokeWidth=2;verticalLabelPosition=bottom;verticalAlign=top;align=center;outlineConnect=0;" vertex="1" parent="1">
          <mxGeometry x="344" y="620" width="64" height="40" as="geometry" />
        </mxCell>
        <mxCell id="fRu_CCLorEqA925XQcMt-2260" value="" style="ellipse;shape=cloud;whiteSpace=wrap;html=1;" vertex="1" parent="1">
          <mxGeometry x="330" y="520" width="84" height="50" as="geometry" />
        </mxCell>
        <mxCell id="fRu_CCLorEqA925XQcMt-2261" value="" style="shape=mxgraph.cisco.servers.fileserver;sketch=0;html=1;pointerEvents=1;dashed=0;fillColor=#036897;strokeColor=#ffffff;strokeWidth=2;verticalLabelPosition=bottom;verticalAlign=top;align=center;outlineConnect=0;" vertex="1" parent="1">
          <mxGeometry x="500" y="609" width="43" height="62" as="geometry" />
        </mxCell>
        <mxCell id="fRu_CCLorEqA925XQcMt-2262" value="" style="shape=mxgraph.cisco.modems_and_phones.ip_phone;sketch=0;html=1;pointerEvents=1;dashed=0;fillColor=#036897;strokeColor=#ffffff;strokeWidth=2;verticalLabelPosition=bottom;verticalAlign=top;align=center;outlineConnect=0;" vertex="1" parent="1">
          <mxGeometry x="560" y="721" width="70" height="34" as="geometry" />
        </mxCell>
        <mxCell id="fRu_CCLorEqA925XQcMt-2263" value="" style="shape=mxgraph.cisco.routers.wireless_router;sketch=0;html=1;pointerEvents=1;dashed=0;fillColor=#036897;strokeColor=#ffffff;strokeWidth=2;verticalLabelPosition=bottom;verticalAlign=top;align=center;outlineConnect=0;" vertex="1" parent="1">
          <mxGeometry x="200" y="612.5" width="60" height="55" as="geometry" />
        </mxCell>
        <mxCell id="fRu_CCLorEqA925XQcMt-2264" value="" style="shape=mxgraph.cisco.computers_and_peripherals.laptop;sketch=0;html=1;pointerEvents=1;dashed=0;fillColor=#036897;strokeColor=#ffffff;strokeWidth=2;verticalLabelPosition=bottom;verticalAlign=top;align=center;outlineConnect=0;" vertex="1" parent="1">
          <mxGeometry x="60" y="650" width="70" height="50" as="geometry" />
        </mxCell>
        <mxCell id="fRu_CCLorEqA925XQcMt-2265" value="" style="shape=mxgraph.cisco.computers_and_peripherals.laptop;sketch=0;html=1;pointerEvents=1;dashed=0;fillColor=#036897;strokeColor=#ffffff;strokeWidth=2;verticalLabelPosition=bottom;verticalAlign=top;align=center;outlineConnect=0;" vertex="1" parent="1">
          <mxGeometry x="120" y="535" width="70" height="50" as="geometry" />
        </mxCell>
        <mxCell id="fRu_CCLorEqA925XQcMt-2266" value="" style="shape=mxgraph.cisco.modems_and_phones.cell_phone;sketch=0;html=1;pointerEvents=1;dashed=0;fillColor=#036897;strokeColor=#ffffff;strokeWidth=2;verticalLabelPosition=bottom;verticalAlign=top;align=center;outlineConnect=0;" vertex="1" parent="1">
          <mxGeometry x="240" y="477" width="34" height="58" as="geometry" />
        </mxCell>
        <mxCell id="fRu_CCLorEqA925XQcMt-2269" value="" style="shape=mxgraph.cisco.computers_and_peripherals.pc;sketch=0;html=1;pointerEvents=1;dashed=0;fillColor=#036897;strokeColor=#ffffff;strokeWidth=2;verticalLabelPosition=bottom;verticalAlign=top;align=center;outlineConnect=0;" vertex="1" parent="1">
          <mxGeometry x="200" y="850" width="60" height="60" as="geometry" />
        </mxCell>
        <mxCell id="fRu_CCLorEqA925XQcMt-2271" value="" style="shape=mxgraph.cisco.computers_and_peripherals.pc;sketch=0;html=1;pointerEvents=1;dashed=0;fillColor=#036897;strokeColor=#ffffff;strokeWidth=2;verticalLabelPosition=bottom;verticalAlign=top;align=center;outlineConnect=0;" vertex="1" parent="1">
          <mxGeometry x="135.77" y="780" width="60" height="60" as="geometry" />
        </mxCell>
        <mxCell id="fRu_CCLorEqA925XQcMt-2272" value="" style="shape=mxgraph.cisco.computers_and_peripherals.pc;sketch=0;html=1;pointerEvents=1;dashed=0;fillColor=#036897;strokeColor=#ffffff;strokeWidth=2;verticalLabelPosition=bottom;verticalAlign=top;align=center;outlineConnect=0;" vertex="1" parent="1">
          <mxGeometry x="140" y="910" width="60" height="60" as="geometry" />
        </mxCell>
        <mxCell id="fRu_CCLorEqA925XQcMt-2273" value="" style="shape=mxgraph.cisco.computers_and_peripherals.pc;sketch=0;html=1;pointerEvents=1;dashed=0;fillColor=#036897;strokeColor=#ffffff;strokeWidth=2;verticalLabelPosition=bottom;verticalAlign=top;align=center;outlineConnect=0;" vertex="1" parent="1">
          <mxGeometry x="70" y="850" width="60" height="60" as="geometry" />
        </mxCell>
        <mxCell id="fRu_CCLorEqA925XQcMt-2275" value="" style="shape=mxgraph.cisco.computers_and_peripherals.workstation;sketch=0;html=1;pointerEvents=1;dashed=0;fillColor=#036897;strokeColor=#ffffff;strokeWidth=2;verticalLabelPosition=bottom;verticalAlign=top;align=center;outlineConnect=0;" vertex="1" parent="1">
          <mxGeometry x="399.5" y="840" width="83" height="62" as="geometry" />
        </mxCell>
        <mxCell id="fRu_CCLorEqA925XQcMt-2276" value="" style="shape=mxgraph.cisco.computers_and_peripherals.workstation;sketch=0;html=1;pointerEvents=1;dashed=0;fillColor=#036897;strokeColor=#ffffff;strokeWidth=2;verticalLabelPosition=bottom;verticalAlign=top;align=center;outlineConnect=0;" vertex="1" parent="1">
          <mxGeometry x="520" y="810" width="90" height="62" as="geometry" />
        </mxCell>
        <mxCell id="fRu_CCLorEqA925XQcMt-2277" value="" style="shape=mxgraph.cisco.modems_and_phones.phone;sketch=0;html=1;pointerEvents=1;dashed=0;fillColor=#036897;strokeColor=#ffffff;strokeWidth=2;verticalLabelPosition=bottom;verticalAlign=top;align=center;outlineConnect=0;" vertex="1" parent="1">
          <mxGeometry x="610" y="924" width="64" height="46" as="geometry" />
        </mxCell>
        <mxCell id="fRu_CCLorEqA925XQcMt-2278" value="" style="shape=mxgraph.cisco.computers_and_peripherals.scanner;sketch=0;html=1;pointerEvents=1;dashed=0;fillColor=#036897;strokeColor=#ffffff;strokeWidth=2;verticalLabelPosition=bottom;verticalAlign=top;align=center;outlineConnect=0;" vertex="1" parent="1">
          <mxGeometry x="320" y="800" width="50" height="50" as="geometry" />
        </mxCell>
        <mxCell id="fRu_CCLorEqA925XQcMt-2279" value="" style="shape=mxgraph.cisco.computers_and_peripherals.printer;sketch=0;html=1;pointerEvents=1;dashed=0;fillColor=#036897;strokeColor=#ffffff;strokeWidth=2;verticalLabelPosition=bottom;verticalAlign=top;align=center;outlineConnect=0;" vertex="1" parent="1">
          <mxGeometry x="308.5" y="936" width="73" height="30" as="geometry" />
        </mxCell>
        <mxCell id="fRu_CCLorEqA925XQcMt-2280" value="" style="endArrow=none;html=1;rounded=0;entryX=1;entryY=0.5;entryDx=0;entryDy=0;entryPerimeter=0;exitX=0;exitY=0.5;exitDx=0;exitDy=0;exitPerimeter=0;" edge="1" parent="1" source="fRu_CCLorEqA925XQcMt-2257" target="fRu_CCLorEqA925XQcMt-2258">
          <mxGeometry width="50" height="50" relative="1" as="geometry">
            <mxPoint x="410" y="800" as="sourcePoint" />
            <mxPoint x="460" y="750" as="targetPoint" />
          </mxGeometry>
        </mxCell>
        <mxCell id="fRu_CCLorEqA925XQcMt-2283" value="" style="endArrow=none;html=1;rounded=0;entryX=0.12;entryY=0.9;entryDx=0;entryDy=0;entryPerimeter=0;exitX=0.5;exitY=0;exitDx=0;exitDy=0;exitPerimeter=0;" edge="1" parent="1" source="fRu_CCLorEqA925XQcMt-2258" target="fRu_CCLorEqA925XQcMt-2259">
          <mxGeometry width="50" height="50" relative="1" as="geometry">
            <mxPoint x="330" y="700" as="sourcePoint" />
            <mxPoint x="460" y="750" as="targetPoint" />
          </mxGeometry>
        </mxCell>
        <mxCell id="fRu_CCLorEqA925XQcMt-2284" value="" style="endArrow=none;html=1;rounded=0;entryX=0.55;entryY=0.95;entryDx=0;entryDy=0;entryPerimeter=0;" edge="1" parent="1" source="fRu_CCLorEqA925XQcMt-2259" target="fRu_CCLorEqA925XQcMt-2260">
          <mxGeometry width="50" height="50" relative="1" as="geometry">
            <mxPoint x="430" y="720" as="sourcePoint" />
            <mxPoint x="480" y="670" as="targetPoint" />
          </mxGeometry>
        </mxCell>
        <mxCell id="fRu_CCLorEqA925XQcMt-2285" value="" style="endArrow=none;html=1;rounded=0;entryX=0;entryY=0.5;entryDx=0;entryDy=0;entryPerimeter=0;exitX=1;exitY=0.5;exitDx=0;exitDy=0;exitPerimeter=0;" edge="1" parent="1" source="fRu_CCLorEqA925XQcMt-2259" target="fRu_CCLorEqA925XQcMt-2261">
          <mxGeometry width="50" height="50" relative="1" as="geometry">
            <mxPoint x="430" y="720" as="sourcePoint" />
            <mxPoint x="480" y="670" as="targetPoint" />
          </mxGeometry>
        </mxCell>
        <mxCell id="fRu_CCLorEqA925XQcMt-2286" value="" style="endArrow=none;html=1;rounded=0;exitX=0;exitY=0.5;exitDx=0;exitDy=0;exitPerimeter=0;" edge="1" parent="1" source="fRu_CCLorEqA925XQcMt-2259" target="fRu_CCLorEqA925XQcMt-2263">
          <mxGeometry width="50" height="50" relative="1" as="geometry">
            <mxPoint x="430" y="720" as="sourcePoint" />
            <mxPoint x="270" y="650" as="targetPoint" />
          </mxGeometry>
        </mxCell>
        <mxCell id="fRu_CCLorEqA925XQcMt-2289" value="" style="html=1;verticalLabelPosition=bottom;align=center;labelBackgroundColor=#ffffff;verticalAlign=top;strokeWidth=2;strokeColor=#0080F0;shadow=0;dashed=0;shape=mxgraph.ios7.icons.wifi;pointerEvents=1;rotation=75;" vertex="1" parent="1">
          <mxGeometry x="135.77" y="652.49" width="50" height="37.71" as="geometry" />
        </mxCell>
        <mxCell id="fRu_CCLorEqA925XQcMt-2290" value="" style="html=1;verticalLabelPosition=bottom;align=center;labelBackgroundColor=#ffffff;verticalAlign=top;strokeWidth=2;strokeColor=#0080F0;shadow=0;dashed=0;shape=mxgraph.ios7.icons.wifi;pointerEvents=1;rotation=43;direction=south;" vertex="1" parent="1">
          <mxGeometry x="173.03" y="575.05" width="35.63" height="40.86" as="geometry" />
        </mxCell>
        <mxCell id="fRu_CCLorEqA925XQcMt-2291" value="" style="html=1;verticalLabelPosition=bottom;align=center;labelBackgroundColor=#ffffff;verticalAlign=top;strokeWidth=2;strokeColor=#0080F0;shadow=0;dashed=0;shape=mxgraph.ios7.icons.wifi;pointerEvents=1;rotation=-180;" vertex="1" parent="1">
          <mxGeometry x="232" y="542.25" width="42" height="35.5" as="geometry" />
        </mxCell>
        <mxCell id="fRu_CCLorEqA925XQcMt-2292" value="" style="endArrow=none;html=1;rounded=0;entryX=1;entryY=0.5;entryDx=0;entryDy=0;entryPerimeter=0;" edge="1" parent="1" source="fRu_CCLorEqA925XQcMt-2262" target="fRu_CCLorEqA925XQcMt-2257">
          <mxGeometry width="50" height="50" relative="1" as="geometry">
            <mxPoint x="550" y="870" as="sourcePoint" />
            <mxPoint x="600" y="820" as="targetPoint" />
          </mxGeometry>
        </mxCell>
        <mxCell id="fRu_CCLorEqA925XQcMt-2293" value="" style="endArrow=none;html=1;rounded=0;entryX=0.5;entryY=1;entryDx=0;entryDy=0;entryPerimeter=0;" edge="1" parent="1" source="fRu_CCLorEqA925XQcMt-2269" target="fRu_CCLorEqA925XQcMt-2258">
          <mxGeometry width="50" height="50" relative="1" as="geometry">
            <mxPoint x="550" y="870" as="sourcePoint" />
            <mxPoint x="600" y="820" as="targetPoint" />
          </mxGeometry>
        </mxCell>
        <mxCell id="fRu_CCLorEqA925XQcMt-2295" value="" style="endArrow=none;html=1;rounded=0;exitX=0.83;exitY=0.5;exitDx=0;exitDy=0;exitPerimeter=0;" edge="1" parent="1" source="fRu_CCLorEqA925XQcMt-2272" target="fRu_CCLorEqA925XQcMt-2269">
          <mxGeometry width="50" height="50" relative="1" as="geometry">
            <mxPoint x="370" y="880" as="sourcePoint" />
            <mxPoint x="270" y="970" as="targetPoint" />
            <Array as="points">
              <mxPoint x="210" y="940" />
              <mxPoint x="230" y="920" />
            </Array>
          </mxGeometry>
        </mxCell>
        <mxCell id="fRu_CCLorEqA925XQcMt-2296" value="" style="endArrow=none;html=1;rounded=0;exitX=0.16;exitY=0.5;exitDx=0;exitDy=0;exitPerimeter=0;" edge="1" parent="1" source="fRu_CCLorEqA925XQcMt-2272" target="fRu_CCLorEqA925XQcMt-2273">
          <mxGeometry width="50" height="50" relative="1" as="geometry">
            <mxPoint x="140" y="940" as="sourcePoint" />
            <mxPoint x="110" y="940" as="targetPoint" />
            <Array as="points">
              <mxPoint x="120" y="940" />
              <mxPoint x="100" y="920" />
            </Array>
          </mxGeometry>
        </mxCell>
        <mxCell id="fRu_CCLorEqA925XQcMt-2297" value="" style="endArrow=none;html=1;rounded=0;exitX=0.5;exitY=0;exitDx=0;exitDy=0;exitPerimeter=0;entryX=0.16;entryY=0.5;entryDx=0;entryDy=0;entryPerimeter=0;" edge="1" parent="1" source="fRu_CCLorEqA925XQcMt-2273" target="fRu_CCLorEqA925XQcMt-2271">
          <mxGeometry width="50" height="50" relative="1" as="geometry">
            <mxPoint x="190" y="920" as="sourcePoint" />
            <mxPoint x="240" y="870" as="targetPoint" />
            <Array as="points">
              <mxPoint x="100" y="830" />
              <mxPoint x="120" y="810" />
            </Array>
          </mxGeometry>
        </mxCell>
        <mxCell id="fRu_CCLorEqA925XQcMt-2298" value="" style="endArrow=none;html=1;rounded=0;exitX=0.5;exitY=0;exitDx=0;exitDy=0;exitPerimeter=0;entryX=0.83;entryY=0.5;entryDx=0;entryDy=0;entryPerimeter=0;" edge="1" parent="1" source="fRu_CCLorEqA925XQcMt-2269" target="fRu_CCLorEqA925XQcMt-2271">
          <mxGeometry width="50" height="50" relative="1" as="geometry">
            <mxPoint x="190" y="920" as="sourcePoint" />
            <mxPoint x="200" y="810" as="targetPoint" />
            <Array as="points">
              <mxPoint x="230" y="830" />
              <mxPoint x="210" y="810" />
            </Array>
          </mxGeometry>
        </mxCell>
        <mxCell id="fRu_CCLorEqA925XQcMt-2302" value="" style="endArrow=none;html=1;rounded=0;" edge="1" parent="1" target="fRu_CCLorEqA925XQcMt-2257">
          <mxGeometry width="50" height="50" relative="1" as="geometry">
            <mxPoint x="440" y="840" as="sourcePoint" />
            <mxPoint x="490" y="790" as="targetPoint" />
          </mxGeometry>
        </mxCell>
        <mxCell id="fRu_CCLorEqA925XQcMt-2303" value="" style="endArrow=none;html=1;rounded=0;exitX=0.92;exitY=0.91;exitDx=0;exitDy=0;exitPerimeter=0;entryX=0.19;entryY=0.02;entryDx=0;entryDy=0;entryPerimeter=0;" edge="1" parent="1" source="fRu_CCLorEqA925XQcMt-2257" target="fRu_CCLorEqA925XQcMt-2276">
          <mxGeometry width="50" height="50" relative="1" as="geometry">
            <mxPoint x="470" y="780" as="sourcePoint" />
            <mxPoint x="490" y="790" as="targetPoint" />
          </mxGeometry>
        </mxCell>
        <mxCell id="fRu_CCLorEqA925XQcMt-2305" value="" style="endArrow=none;html=1;rounded=0;exitX=0.51;exitY=0;exitDx=0;exitDy=0;exitPerimeter=0;entryX=0.5;entryY=1;entryDx=0;entryDy=0;entryPerimeter=0;" edge="1" parent="1" source="fRu_CCLorEqA925XQcMt-2277" target="fRu_CCLorEqA925XQcMt-2276">
          <mxGeometry width="50" height="50" relative="1" as="geometry">
            <mxPoint x="440" y="840" as="sourcePoint" />
            <mxPoint x="560" y="880" as="targetPoint" />
            <Array as="points" />
          </mxGeometry>
        </mxCell>
        <mxCell id="fRu_CCLorEqA925XQcMt-2306" value="" style="endArrow=none;html=1;rounded=0;exitX=1;exitY=0.1;exitDx=0;exitDy=0;exitPerimeter=0;" edge="1" parent="1" source="fRu_CCLorEqA925XQcMt-2278" target="fRu_CCLorEqA925XQcMt-2275">
          <mxGeometry width="50" height="50" relative="1" as="geometry">
            <mxPoint x="370" y="880" as="sourcePoint" />
            <mxPoint x="420" y="830" as="targetPoint" />
          </mxGeometry>
        </mxCell>
        <mxCell id="fRu_CCLorEqA925XQcMt-2307" value="" style="endArrow=none;html=1;rounded=0;exitX=0.5;exitY=0;exitDx=0;exitDy=0;exitPerimeter=0;" edge="1" parent="1" source="fRu_CCLorEqA925XQcMt-2279" target="fRu_CCLorEqA925XQcMt-2275">
          <mxGeometry width="50" height="50" relative="1" as="geometry">
            <mxPoint x="370" y="890" as="sourcePoint" />
            <mxPoint x="420" y="840" as="targetPoint" />
          </mxGeometry>
        </mxCell>
      </root>
    </mxGraphModel>
  </diagram>
</mxfile>
